<svg height="640" viewBox="0 0 480 480" width="640" xmlns="http://www.w3.org/2000/svg"><path d="M98.762 284c.437-.29.933-.496 1.398-.8-.465.32-.96.527-1.398.8zm0 0M231.055 281.777c.593-.242 1.234-.386 1.847-.586-.613.2-1.254.336-1.847.586zm0 0M235.809 280.426c.687-.121 1.406-.153 2.12-.219-.714.066-1.425.098-2.12.219zm0 0M373.809 280.8c.472.122.918.29 1.382.43-.457-.168-.91-.32-1.382-.43zm0 0M354.762 284c.437-.29.933-.496 1.398-.8-.465.32-.96.527-1.398.8zm0 0M103.055 281.777c.593-.242 1.234-.386 1.847-.586-.613.2-1.254.336-1.847.586zm0 0M369.762 280.063h-.801c.8 0 1.52.128 2.27.226-.512-.031-.965-.191-1.47-.226zm0 0M363.809 280.426c.687-.121 1.406-.153 2.12-.219-.714.066-1.425.098-2.12.219zm0 0M359.055 281.777c.593-.242 1.234-.386 1.847-.586-.613.2-1.254.336-1.847.586zm0 0M245.809 280.8c.472.122.918.29 1.382.43-.457-.168-.91-.32-1.382-.43zm0 0M107.809 280.426c.687-.121 1.406-.153 2.12-.219-.714.066-1.425.098-2.12.219zm0 0M226.762 284c.437-.29.933-.496 1.398-.8-.465.32-.96.527-1.398.8zm0 0M113.762 280.063h-.801c.8 0 1.52.128 2.27.226-.512-.031-.965-.191-1.47-.226zm0 0M117.809 280.8c.472.122.918.29 1.382.43-.457-.168-.91-.32-1.382-.43zm0 0M241.762 280.063h-.801c.8 0 1.52.128 2.27.226-.512-.031-.965-.191-1.47-.226zm0 0" fill="#ffcd00"/><path d="M403.68 364.32A40.175 40.175 0 0 1 392 336v-30.648a25.413 25.413 0 0 0-16.8-24.137c-.466-.145-.91-.313-1.384-.43-.855-.2-1.722-.355-2.593-.465-.75-.097-1.504-.191-2.27-.222a23.535 23.535 0 0 0-3.015.109c-.715.066-1.434.098-2.122.219-.984.207-1.953.472-2.906.797-.613.203-1.254.343-1.848.586-.996.425-1.964.918-2.894 1.48-.465.262-.961.473-1.398.8a23.86 23.86 0 0 0-3.723 3.024A23.936 23.936 0 0 0 344 304v16c0 22.09-17.91 40-40 40s-40-17.91-40-40v-14.648a25.413 25.413 0 0 0-16.8-24.137c-.466-.145-.91-.313-1.384-.43-.855-.2-1.722-.355-2.593-.465-.75-.097-1.504-.191-2.27-.222a23.535 23.535 0 0 0-3.015.109c-.715.066-1.434.098-2.122.219-.984.207-1.953.472-2.906.797-.613.203-1.254.343-1.847.586-.997.425-1.965.918-2.895 1.48-.465.262-.961.473-1.398.8a23.86 23.86 0 0 0-3.723 3.024A23.936 23.936 0 0 0 216 304v48c0 22.09-17.91 40-40 40s-40-17.91-40-40v-46.648a25.413 25.413 0 0 0-16.8-24.137c-.466-.145-.91-.313-1.384-.43-.855-.2-1.722-.355-2.593-.465-.75-.097-1.504-.191-2.27-.222a23.535 23.535 0 0 0-3.015.109c-.715.066-1.434.098-2.122.219-.984.207-1.953.472-2.906.797-.613.203-1.254.343-1.847.586-.997.425-1.965.918-2.895 1.48-.465.262-.961.473-1.398.8a23.86 23.86 0 0 0-3.723 3.024A23.936 23.936 0 0 0 88 304v32a39.888 39.888 0 0 1-11.68 28.32A39.888 39.888 0 0 1 48 376a40.814 40.814 0 0 1-16-3.281V472h416v-99.281A40.814 40.814 0 0 1 432 376a40.175 40.175 0 0 1-28.32-11.68zm0 0" fill="#ffcd00"/><path d="M440 232H40c-17.672 0-32 14.328-32 32v72c0 10.613 4.2 20.793 11.68 28.32A39.683 39.683 0 0 0 48 376a39.888 39.888 0 0 0 28.32-11.68A39.888 39.888 0 0 0 88 336v-32a23.946 23.946 0 0 1 7.04-16.96 24.086 24.086 0 0 1 3.722-3.024c.437-.29.933-.496 1.398-.801a23.757 23.757 0 0 1 2.895-1.48c.593-.247 1.234-.383 1.847-.583a25 25 0 0 1 2.907-.8c.695-.122 1.406-.153 2.12-.215.712-.067 1.36-.137 2.071-.137.32 0 .625.078.945.098.32.015.535-.059.797 0 .504 0 .961.191 1.457.254.871.109 1.739.265 2.594.464.473.13.926.282 1.383.43A23.872 23.872 0 0 1 136 304v48c0 22.09 17.91 40 40 40s40-17.91 40-40v-48a23.946 23.946 0 0 1 7.04-16.96 24.086 24.086 0 0 1 3.722-3.024c.437-.29.933-.496 1.398-.801a23.757 23.757 0 0 1 2.895-1.48c.593-.247 1.234-.383 1.847-.583a25 25 0 0 1 2.907-.8c.695-.122 1.406-.153 2.12-.215.712-.067 1.36-.137 2.071-.137.32 0 .625.078.945.098.32.015.535-.059.797 0 .504 0 .961.191 1.457.254.871.109 1.738.265 2.594.464.473.13.926.282 1.383.43A23.872 23.872 0 0 1 264 304v16c0 22.09 17.91 40 40 40s40-17.91 40-40v-16a23.946 23.946 0 0 1 7.04-16.96 24.086 24.086 0 0 1 3.722-3.024c.437-.29.933-.496 1.398-.801a23.757 23.757 0 0 1 2.895-1.48c.593-.247 1.234-.383 1.847-.583a25 25 0 0 1 2.907-.8c.695-.122 1.406-.153 2.12-.215.712-.067 1.36-.137 2.071-.137.32 0 .625.078.945.098.32.015.535-.059.797 0 .504 0 .961.191 1.457.254.871.109 1.739.265 2.594.464.473.13.926.282 1.383.43A23.872 23.872 0 0 1 392 304v32a39.888 39.888 0 0 0 11.68 28.32A39.888 39.888 0 0 0 432 376a40.814 40.814 0 0 0 16-3.281A40.229 40.229 0 0 0 472 336v-72c0-17.672-14.328-32-32-32zm0 0" fill="#ff3051"/><path d="M76.32 364.32A40.175 40.175 0 0 0 88 336v16a39.888 39.888 0 0 1-11.68 28.32A39.888 39.888 0 0 1 48 392a39.683 39.683 0 0 1-28.32-11.68A40.175 40.175 0 0 1 8 352v-16c0 10.613 4.2 20.793 11.68 28.32A39.683 39.683 0 0 0 48 376c10.613 0 20.793-4.2 28.32-11.68zm0 0M204.32 380.32A40.175 40.175 0 0 0 216 352v16c0 22.09-17.91 40-40 40s-40-17.91-40-40v-16a40.056 40.056 0 0 0 24.71 36.953c14.946 6.192 32.153 2.79 43.61-8.633zm0 0M332.32 348.32A40.175 40.175 0 0 0 344 320v16c0 22.09-17.91 40-40 40s-40-17.91-40-40v-16a40.056 40.056 0 0 0 24.71 36.953c14.946 6.192 32.153 2.79 43.61-8.633zm0 0M472 336v16a40.229 40.229 0 0 1-24 36.719A40.814 40.814 0 0 1 432 392a39.888 39.888 0 0 1-28.32-11.68A39.888 39.888 0 0 1 392 352v-16a39.888 39.888 0 0 0 11.68 28.32A39.888 39.888 0 0 0 432 376a40.814 40.814 0 0 0 16-3.281A40.229 40.229 0 0 0 472 336zm0 0" fill="#e52b49"/><path d="M472 480H8a8 8 0 0 1 0-16h464a8 8 0 0 1 0 16zm0 0" fill="#bcbec0"/><g fill="#ffcd00"><path d="M351.04 287.04zm0 0M136 305.352V304a23.877 23.877 0 0 0-16.8-22.785 25.413 25.413 0 0 1 16.8 24.137zm0 0M243.2 280.32zm0 0M264 305.352V304a23.877 23.877 0 0 0-16.8-22.785 25.413 25.413 0 0 1 16.8 24.137zm0 0M392 305.352V304a23.877 23.877 0 0 0-16.8-22.785 25.413 25.413 0 0 1 16.8 24.137zm0 0M232.902 281.191zm0 0M112 280c-.71 0-1.375.152-2.07.207 1-.102 2.007-.137 3.015-.11-.32-.019-.625-.097-.945-.097zm0 0M115.2 280.32zm0 0M368 280c-.71 0-1.375.152-2.07.207 1-.102 2.007-.137 3.015-.11-.32-.019-.625-.097-.945-.097zm0 0M100.16 283.258zm0 0M356.16 283.258zm0 0M360.902 281.191zm0 0M95.04 287.04zm0 0M104.902 281.191zm0 0M240 280c-.71 0-1.375.152-2.07.207 1-.102 2.007-.137 3.015-.11-.32-.019-.625-.097-.945-.097zm0 0M223.04 287.04zm0 0M371.2 280.32zm0 0M228.16 283.258zm0 0"/></g><path d="M216 128h48v104h-48zm0 0" fill="#ff9811"/><path d="M208 64c0 17.672 14.328 32 32 32s32-14.328 32-32-32-64-32-64-32 46.328-32 64zm0 0" fill="#ff6243"/><path d="M352 144h48v88h-48zm0 0" fill="#ff9811"/><path d="M344 80c0 17.672 14.328 32 32 32s32-14.328 32-32-32-64-32-64-32 46.328-32 64zm0 0" fill="#ff6243"/><path d="M80 144h48v88H80zm0 0" fill="#ff9811"/><path d="M136 80c-.012 16.098-11.957 29.688-27.922 31.762H108a32.62 32.62 0 0 1-4 .238c-17.672 0-32-14.328-32-32 0-17.68 32-64 32-64s1.602 2.32 4 6c8.64 13.121 28 44.238 28 58zm0 0" fill="#ff6243"/><path d="M108 111.762a32.62 32.62 0 0 1-4 .238c-17.672 0-32-14.328-32-32 0-17.68 32-64 32-64s1.602 2.32 4 6c-8.64 13.121-28 44.238-28 58 .02 16.121 12.008 29.719 28 31.762zm0 0M244 95.762a32.62 32.62 0 0 1-4 .238c-17.672 0-32-14.328-32-32 0-17.68 32-64 32-64s1.602 2.32 4 6c-8.64 13.121-28 44.238-28 58 .02 16.121 12.008 29.719 28 31.762zm0 0M380 111.762a32.62 32.62 0 0 1-4 .238c-17.672 0-32-14.328-32-32 0-17.68 32-64 32-64s1.602 2.32 4 6c-8.64 13.121-28 44.238-28 58 .02 16.121 12.008 29.719 28 31.762zm0 0" fill="#e5583c"/><path d="M80 144h48v16H80zm0 0M216 128h48v16h-48zm0 0M352 144h48v16h-48zm0 0" fill="#e5890f"/></svg>